# xmcd CD database file
#
# Track frame offsets:
#	187
#	17577
#	39759
#	59667
#	73734
#	93192
#	115577
#	136317
#	159797
#	182484
#
# Disc length: 2680 seconds
#
# Revision: 5
# Processed by: cddbd v1.5.2PL0 Copyright (c) Steve Scherf et al.
# Submitted via: CDex 1.51
#
DISCID=730a760a
DTITLE=Aretha Franklin - What You See Is What You Sweat
DYEAR=1991
DGENRE=Soul/R&B
TTITLE0=Everyday People
TTITLE1=Ever Changing Times [feat. Michael McDonald]
TTITLE2=What You See Is What You Sweat
TTITLE3=Mary Goes Round
TTITLE4=I Dreamed A Dream
TTITLE5=Someone Else's Eyes
TTITLE6=Doctor's Orders [Duet with Luther Vandross]
TTITLE7=You Can't Take Me For Granted
TTITLE8=What Did You Give
TTITLE9=Everyday People [Remix]
EXTD=YEAR: 1991
EXTT0=
EXTT1=
EXTT2=
EXTT3=
EXTT4=
EXTT5=
EXTT6=
EXTT7=
EXTT8=
EXTT9=
PLAYORDER=
